<?xml version="1.0" encoding="utf-8"?>
<svg x="0pt" y="0pt" width="500pt" height="500pt" viewBox="0 0 500 500" xmlns="http://www.w3.org/2000/svg" xmlns:xlink="http://www.w3.org/1999/xlink">
  <g id="Layer 1 Copy">
    <path id="Smart Rectangle" style="fill:#000000;fill-opacity:1;fill-rule:nonzero;opacity:1;stroke:none;" d="M500,450.698 C500,477.759,478.062,499.698,451,499.698 C451,499.698,49,499.698,49,499.698 C21.938,499.698,3.31286e-06,477.759,-7.73382e-07,450.698 C-7.73382e-07,450.698,-7.73382e-07,49.3025,-7.73382e-07,49.3025 C3.31286e-06,22.2405,21.938,0.302469,49,0.302468 C49,0.302468,451,0.302468,451,0.302468 C478.062,0.30247,500,22.2405,500,49.3025 C500,49.3025,500,450.698,500,450.698 z"/>
    <path id="XOR" style="fill:#ffffff;fill-opacity:1;fill-rule:evenodd;opacity:1;stroke:none;" d="M359.271,168.397 C359.271,168.397,331.787,195.708,331.787,195.708 C331.787,195.708,331.787,299.379,331.787,299.379 C331.787,299.379,359.271,326.863,359.271,326.863 C359.271,326.863,359.271,263.045,359.271,263.045 C359.271,263.045,384.427,263.045,384.427,263.045 C384.427,263.045,425.368,331.361,425.368,331.361 C425.368,331.361,459.138,331.361,459.138,331.361 C459.138,331.361,415.99,261.44,415.99,261.44 C415.99,261.44,453.899,252.252,453.899,215.721 C453.899,172.04,406.752,168.397,406.752,168.397 C406.752,168.397,359.271,168.397,359.271,168.397 z M359.271,197.255 C359.271,197.255,359.271,237.107,359.271,237.107 C359.271,237.107,402.575,237.107,402.575,237.107 C402.575,237.107,421.808,235.509,421.808,217.181 C421.808,198.907,402.575,197.255,402.575,197.255 C402.575,197.255,359.271,197.255,359.271,197.255 z M309.973,217.181 C309.973,217.181,309.973,277.353,309.973,277.353 C309.973,277.353,279.973,247.138,279.973,247.138 C279.973,247.138,309.973,217.181,309.973,217.181 z M231.428,231.195 C231.428,231.195,92.5316,92.497,92.5316,92.497 C92.5316,92.497,55.1311,92.497,55.1311,92.497 C55.1311,92.497,212.646,250.012,212.646,250.012 C212.646,250.012,55.1435,407.515,55.1435,407.515 C55.1435,407.515,92.5316,407.515,92.5316,407.515 C92.5316,407.515,231.311,268.6,231.311,268.6 C231.311,268.6,294.55,331.785,294.55,331.785 C294.55,331.785,331.603,331.545,331.603,331.545 C331.603,331.545,250,249.879,250,249.879 C250,249.879,331.666,168.276,331.666,168.276 C331.666,168.276,294.849,167.773,294.849,167.773 C294.849,167.773,231.428,231.195,231.428,231.195 z"/>
    <g id="Group">
      <path id="Path 923" style="fill:#ffffff;fill-opacity:1;fill-rule:evenodd;opacity:1;stroke:none;" d="M451.254,142.643 C451.254,142.643,467.5,126.398,467.5,126.398 C467.5,126.398,467.5,92.5,467.5,92.5 C467.5,92.5,477.5,92.5,477.5,92.5 C477.5,92.5,477.5,407.5,477.5,407.5 C477.5,407.5,467.5,407.5,467.5,407.5 C467.5,407.5,467.5,138.476,467.5,138.476 C467.5,138.476,452.823,153.153,452.823,153.153 C451.456,154.99,449.268,156.18,446.803,156.18 C442.661,156.18,439.303,152.822,439.303,148.68 C439.303,144.537,442.661,141.18,446.803,141.18 C448.469,141.18,450.009,141.723,451.254,142.643 z"/>
      <path id="Path 924" style="fill:#ffffff;fill-opacity:1;fill-rule:evenodd;opacity:1;stroke:none;" d="M382.144,144.462 C382.144,144.462,434.106,92.5,434.106,92.5 C434.106,92.5,455.32,92.5,455.32,92.5 C455.32,92.5,403.357,144.462,403.357,144.462 C403.357,144.462,382.144,144.462,382.144,144.462 z"/>
      <path id="Path 925" style="fill:#ffffff;fill-opacity:1;fill-rule:evenodd;opacity:1;stroke:none;" d="M408.639,354.796 C408.639,354.796,461.343,407.5,461.343,407.5 C461.343,407.5,440.13,407.5,440.13,407.5 C440.13,407.5,387.425,354.796,387.425,354.796 C387.425,354.796,408.639,354.796,408.639,354.796 z"/>
      <path id="Path 926" style="fill:#ffffff;fill-opacity:1;fill-rule:evenodd;opacity:1;stroke:none;" d="M318.483,144.358 C318.483,144.358,407.611,55.2303,407.611,55.2303 C407.611,55.2303,407.488,92.4876,407.488,92.4876 C407.488,92.4876,355.505,144.47,355.505,144.47 C355.505,144.47,318.483,144.358,318.483,144.358 z"/>
      <path id="Path 927" style="fill:#ffffff;fill-opacity:1;fill-rule:evenodd;opacity:1;stroke:none;" d="M354.697,354.796 C354.697,354.796,407.451,407.549,407.451,407.549 C407.451,407.549,407.437,444.812,407.437,444.812 C407.437,444.812,317.42,354.796,317.42,354.796 C317.42,354.796,354.697,354.796,354.697,354.796 z"/>
      <path id="Path 941" style="fill:#ffffff;fill-opacity:1;fill-rule:evenodd;opacity:1;stroke:none;" d="M140.302,467.5 C140.302,467.5,92.5316,467.5,92.5316,467.5 C92.5316,467.5,92.5316,477.5,92.5316,477.5 C92.5316,477.5,407.5,477.5,407.5,477.5 C407.5,477.5,407.5,467.5,407.5,467.5 C407.5,467.5,154.444,467.5,154.444,467.5 C154.444,467.5,178.091,443.853,178.091,443.853 C178.67,443.952,179.265,444.004,179.873,444.004 C185.672,444.004,190.373,439.303,190.373,433.504 C190.373,427.705,185.672,423.004,179.873,423.004 C174.074,423.004,169.373,427.705,169.373,433.504 C169.373,434.957,169.668,436.341,170.202,437.6 C170.202,437.6,140.302,467.5,140.302,467.5 z"/>
      <path id="Path 939" style="fill:#ffffff;fill-opacity:1;fill-rule:evenodd;opacity:1;stroke:none;" d="M330.532,437.098 C331.81,441.456,335.838,444.638,340.609,444.638 C346.409,444.638,351.109,439.937,351.109,434.138 C351.109,428.339,346.409,423.638,340.609,423.638 C339.886,423.638,339.18,423.712,338.498,423.851 C338.498,423.851,244.128,329.48,244.128,329.48 C244.132,329.653,244.134,329.826,244.134,330 C244.134,335.762,241.966,341.015,238.407,344.973 C238.407,344.973,330.532,437.098,330.532,437.098 z"/>
      <path id="Path 953" style="fill:#ffffff;fill-opacity:1;fill-rule:evenodd;opacity:1;stroke:none;" d="M297.871,69.7602 C297.871,69.7602,231.619,69.7602,231.619,69.7602 C229.732,72.5523,226.537,74.3879,222.913,74.3879 C217.115,74.3879,212.413,69.6869,212.413,63.8879 C212.413,58.0889,217.115,53.3879,222.913,53.3879 C227.162,53.3879,230.822,55.9115,232.474,59.5415 C232.474,59.5415,295.233,59.5415,295.233,59.5415 C295.233,59.5415,322.274,32.5,322.274,32.5 C322.274,32.5,92.5316,32.5,92.5316,32.5 C92.5316,32.5,92.5316,22.5,92.5316,22.5 C92.5316,22.5,407.5,22.5,407.5,22.5 C407.5,22.5,407.5,32.5,407.5,32.5 C407.5,32.5,304.942,135.058,304.942,135.058 C304.942,135.058,304.903,135.018,304.903,135.018 C301.948,137.807,297.963,139.516,293.58,139.516 C284.467,139.516,277.08,132.128,277.08,123.014 C277.08,113.9,284.467,106.512,293.58,106.512 C300.546,106.512,306.503,110.829,308.924,116.934 C308.924,116.934,393.358,32.5,393.358,32.5 C393.358,32.5,335.132,32.5,335.132,32.5 C335.132,32.5,297.871,69.7602,297.871,69.7602 z"/>
      <path id="Path 954" style="fill:#ffffff;fill-opacity:1;fill-rule:evenodd;opacity:1;stroke:none;" d="M226.004,106.512 C226.004,106.512,226.004,163.561,226.004,163.561 C232.165,165.954,236.533,171.942,236.533,178.95 C236.533,188.064,229.145,195.452,220.033,195.452 C213.111,195.452,207.185,191.19,204.735,185.146 C204.735,185.146,92.5316,72.9424,92.5316,72.9424 C92.5316,72.9424,92.5316,45.6452,92.5316,45.6452 C92.5316,45.6452,211.085,164.198,211.085,164.198 C211.085,164.198,211.085,107.255,211.085,107.255 C211.085,107.255,171.952,68.1224,171.952,68.1224 C170.241,69.3313,168.153,70.0415,165.899,70.0415 C160.1,70.0415,155.399,65.3405,155.399,59.5415 C155.399,53.7425,160.1,49.0415,165.899,49.0415 C170.619,49.0415,174.612,52.1559,175.934,56.4419 C175.934,56.4419,226.004,106.512,226.004,106.512 z"/>
      <path id="Path 1047" style="fill:#ffffff;fill-opacity:1;fill-rule:evenodd;opacity:1;stroke:none;" d="M32.5,311.617 C32.5,311.617,32.5,407.5,32.5,407.5 C32.5,407.5,22.5,407.5,22.5,407.5 C22.5,407.5,22.5,303.898,22.5,303.898 C22.2575,303.013,22.1281,302.081,22.1281,301.118 C22.1281,295.319,26.8291,290.618,32.6281,290.618 C38.4271,290.618,43.1281,295.319,43.1281,301.118 C43.1281,306.917,38.4271,311.618,32.6281,311.618 C32.5853,311.618,32.5426,311.618,32.5,311.617 z"/>
      <path id="Path 1048" style="fill:#ffffff;fill-opacity:1;fill-rule:evenodd;opacity:1;stroke:none;" d="M22.5,92.5 C22.5,92.5,32.5,92.5,32.5,92.5 C32.5,92.5,32.5,127.327,32.5,127.327 C32.5,127.327,22.5,127.327,22.5,127.327 C22.5,127.327,22.5,92.5,22.5,92.5 z"/>
      <path id="Path 1046" style="fill:#ffffff;fill-opacity:1;fill-rule:evenodd;opacity:1;stroke:none;" d="M33.8876,246.368 C33.8876,246.368,19.592,232.072,19.592,232.072 C18.763,232.283,17.8945,232.395,17,232.395 C11.201,232.395,6.49997,227.694,6.49997,221.895 C6.49997,216.096,11.201,211.395,17,211.395 C22.799,211.395,27.5,216.096,27.5,221.895 C27.5,222.547,27.4405,223.185,27.3268,223.804 C27.3268,223.804,40.358,236.835,40.358,236.835 C42.6146,234.87,45.2669,233.347,48.1795,232.403 C48.1795,232.403,48.1795,222.9,48.1795,222.9 C48.1795,222.9,21.7157,196.436,21.7157,196.436 C21.7157,196.436,-7.7486e-07,196.436,-7.7486e-07,196.436 C-7.7486e-07,196.436,-7.7486e-07,186.218,-7.7486e-07,186.218 C-7.7486e-07,186.218,27.5,186.218,27.5,186.218 C27.5,186.218,27.5,186.327,27.5,186.327 C27.5,186.327,27.5547,186.272,27.5547,186.272 C27.5547,186.272,58.3982,217.116,58.3982,217.116 C58.3982,217.116,58.3331,217.181,58.3331,217.181 C58.3331,217.181,58.3983,217.181,58.3983,217.181 C58.3983,217.181,58.3983,231.545,58.3983,231.545 C69.2748,233.129,77.6281,242.493,77.6281,253.809 C77.6281,266.236,67.5545,276.309,55.1281,276.309 C42.7017,276.309,32.6281,266.236,32.6281,253.809 C32.6281,251.201,33.0717,248.697,33.8876,246.368 z M55.1281,243.309 C60.9271,243.309,65.6281,248.01,65.6281,253.809 C65.6281,259.608,60.9271,264.309,55.1281,264.309 C49.3291,264.309,44.6281,259.608,44.6281,253.809 C44.6281,248.01,49.3291,243.309,55.1281,243.309 z"/>
      <path id="Path 1045" style="fill:#ffffff;fill-opacity:1;fill-rule:evenodd;opacity:1;stroke:none;" d="M67.2648,140.957 C67.2648,140.957,67.2648,140.954,67.2648,140.954 C67.2648,140.954,8.34558e-06,140.954,8.34558e-06,140.954 C8.34558e-06,140.954,8.34558e-06,158.2,8.34558e-06,158.2 C8.34558e-06,158.2,57.2173,158.2,57.2173,158.2 C57.2173,158.2,148.712,249.695,148.712,249.695 C148.712,249.695,47.9139,350.494,47.9139,350.494 C47.9139,350.494,48.9897,378,48.9897,378 C48.9897,378,163.003,263.986,163.003,263.986 C163.003,263.986,163.017,264,163.017,264 C163.017,264,176.666,250.351,176.666,250.351 C176.666,250.351,176.652,250.338,176.652,250.338 C176.652,250.338,176.666,250.324,176.666,250.324 C176.666,250.324,162.375,236.033,162.375,236.033 C162.375,236.033,162.361,236.047,162.361,236.047 C162.361,236.047,67.268,140.954,67.268,140.954 C67.268,140.954,67.2648,140.957,67.2648,140.957 z"/>
      <path id="Path 1084" style="fill:#ffffff;fill-opacity:1;fill-rule:evenodd;opacity:1;stroke:none;" d="M451,22.5 C465.636,22.5,477.5,34.3645,477.5,49 C477.5,63.6356,465.636,75.5,451,75.5 C436.364,75.5,424.5,63.6356,424.5,49 C424.5,34.3645,436.364,22.5,451,22.5 z M451,39 C456.523,39,461,43.4772,461,49 C461,54.5229,456.523,59,451,59 C445.477,59,441,54.5229,441,49 C441,43.4772,445.477,39,451,39 z"/>
      <path id="Path 1081" style="fill:#ffffff;fill-opacity:1;fill-rule:evenodd;opacity:1;stroke:none;" d="M451,424.5 C465.636,424.5,477.5,436.364,477.5,451 C477.5,465.636,465.636,477.5,451,477.5 C436.364,477.5,424.5,465.636,424.5,451 C424.5,436.364,436.364,424.5,451,424.5 z M451,441 C456.523,441,461,445.477,461,451 C461,456.523,456.523,461,451,461 C445.477,461,441,456.523,441,451 C441,445.477,445.477,441,451,441 z"/>
      <path id="Path 940" style="fill:#ffffff;fill-opacity:1;fill-rule:evenodd;opacity:1;stroke:none;" d="M209.242,340.466 C209.242,340.466,110.277,439.431,110.277,439.431 C109.903,439.855,109.502,440.256,109.078,440.631 C109.078,440.631,108.643,441.065,108.643,441.065 C108.643,441.065,108.606,441.028,108.606,441.028 C106.292,442.89,103.351,444.004,100.151,444.004 C92.6947,444.004,86.6505,437.959,86.6505,430.504 C86.6505,423.048,92.6947,417.004,100.151,417.004 C103.328,417.004,106.25,418.102,108.556,419.939 C108.556,419.939,210.965,317.531,210.965,317.531 C210.965,317.531,211.071,317.637,211.071,317.637 C213.981,315.061,217.808,313.498,222,313.498 C231.113,313.498,238.5,320.886,238.5,330 C238.5,338.085,232.686,344.812,225.012,346.228 C225.012,346.228,225.012,429.384,225.012,429.384 C225.012,429.384,273.123,429.384,273.123,429.384 C274.857,425.974,278.399,423.638,282.487,423.638 C288.286,423.638,292.987,428.339,292.987,434.138 C292.987,439.937,288.286,444.638,282.487,444.638 C278.599,444.638,275.204,442.525,273.389,439.384 C273.389,439.384,217.512,439.384,217.512,439.384 C217.512,439.384,210.012,439.384,210.012,439.384 C210.012,439.384,210.012,341.339,210.012,341.339 C209.746,341.057,209.489,340.766,209.242,340.466 z"/>
      <path id="Path 1078" style="fill:#ffffff;fill-opacity:1;fill-rule:evenodd;opacity:1;stroke:none;" d="M49,22.5 C63.6355,22.5,75.5,34.3645,75.5,49 C75.5,63.6356,63.6355,75.5,49,75.5 C34.3644,75.5,22.5,63.6356,22.5,49 C22.5,34.3645,34.3644,22.5,49,22.5 z M49,39 C54.5228,39,59,43.4772,59,49 C59,54.5229,54.5228,59,49,59 C43.4771,59,39,54.5229,39,49 C39,43.4772,43.4771,39,49,39 z"/>
      <path id="Path 1075" style="fill:#ffffff;fill-opacity:1;fill-rule:evenodd;opacity:1;stroke:none;" d="M49,424.5 C63.6355,424.5,75.5,436.364,75.5,451 C75.5,465.636,63.6355,477.5,49,477.5 C34.3644,477.5,22.5,465.636,22.5,451 C22.5,436.364,34.3644,424.5,49,424.5 z M49,441 C54.5228,441,59,445.477,59,451 C59,456.523,54.5228,461,49,461 C43.4771,461,39,456.523,39,451 C39,445.477,43.4771,441,49,441 z"/>
    </g>
  </g>
</svg>
