<svg width="48" height="48" viewBox="0 0 48 48" fill="none" xmlns="http://www.w3.org/2000/svg">
<rect width="48" height="48" rx="8" fill="#9747FF"/>
<path d="M18.9998 32C16.6887 32 14.7221 31.1889 13.0998 29.5666C11.4776 27.9444 10.6665 25.9778 10.6665 23.6666C10.6665 21.3555 11.4776 19.3889 13.0998 17.7666C14.7221 16.1444 16.6887 15.3333 18.9998 15.3333H31.3332C32.9998 15.3333 34.4165 15.9166 35.5832 17.0833C36.7498 18.25 37.3332 19.6666 37.3332 21.3333C37.3332 23 36.7498 24.4166 35.5832 25.5833C34.4165 26.75 32.9998 27.3333 31.3332 27.3333H19.6665C18.6443 27.3333 17.7776 26.9778 17.0665 26.2666C16.3554 25.5555 15.9998 24.6889 15.9998 23.6666C15.9998 22.6444 16.3554 21.7778 17.0665 21.0666C17.7776 20.3555 18.6443 20 19.6665 20H31.9998V22.6666H19.6665C19.3776 22.6666 19.1387 22.7611 18.9498 22.95C18.7609 23.1389 18.6665 23.3778 18.6665 23.6666C18.6665 23.9555 18.7609 24.1944 18.9498 24.3833C19.1387 24.5722 19.3776 24.6666 19.6665 24.6666H31.3332C32.2665 24.6444 33.0554 24.3166 33.6998 23.6833C34.3443 23.05 34.6665 22.2666 34.6665 21.3333C34.6665 20.4 34.3443 19.6111 33.6998 18.9666C33.0554 18.3222 32.2665 18 31.3332 18H18.9998C17.4221 17.9778 16.0832 18.5222 14.9832 19.6333C13.8832 20.7444 13.3332 22.0889 13.3332 23.6666C13.3332 25.2222 13.8832 26.5444 14.9832 27.6333C16.0832 28.7222 17.4221 29.2889 18.9998 29.3333H31.9998V32H18.9998Z" fill="#FAFAFA"/>
</svg>
