<svg width="237" height="238" viewBox="0 0 237 238" fill="none" xmlns="http://www.w3.org/2000/svg">
<path d="M237 0H0V238H237V0Z" fill="#FFAF10"/>
<path d="M69.959 115.506H117.233V159.132L70.6741 155.327L69.959 115.506Z" fill="#F9F9F9"/>
<path d="M143.042 94.7812V78.2956H136.398V46.2186H130.011V44.9358H82.7355V58.4559H70.6741L69.959 84.2778H82.7355V111.657H58.458V143.734H82.7355V173.245H130.011V169.397H167.127V157.847H178.562V155.282H179.841V94.7812H143.042Z" fill="#F9F9F9"/>
<path d="M108.29 93.6935H34.1816V107.807H108.29V93.6935Z" fill="#FFAF10"/>
<mask id="mask0_1476_8891" style="mask-type:luminance" maskUnits="userSpaceOnUse" x="22" y="34" width="170" height="170">
<path d="M191.255 34.2371H22.4414V203.763H191.255V34.2371Z" fill="white"/>
</mask>
<g mask="url(#mask0_1476_8891)">
<path d="M118.906 34.2371H82.7314V46.3456H118.906V34.2371Z" fill="black"/>
<path d="M130.966 34.2371H118.906V46.3456H130.966V34.2371Z" fill="black"/>
<path d="M143.023 46.3456H130.966V82.6728H143.023V46.3456Z" fill="black"/>
<path d="M94.791 58.4559H82.7334V82.6747H94.791V58.4559Z" fill="black"/>
<path d="M118.906 58.4559H106.849V82.6747H118.906V58.4559Z" fill="black"/>
<path d="M70.6739 70.5644H58.6162V82.6728H70.6739V70.5644Z" fill="black"/>
<path d="M58.6161 82.6728H22.4414V94.7812H58.6161V82.6728Z" fill="black"/>
<path d="M118.906 82.6728V119H106.849V94.7831H58.6162V82.6747H118.906V82.6728Z" fill="black"/>
<path d="M155.081 82.6728H143.023V94.7812H155.081V82.6728Z" fill="black"/>
<path d="M179.198 82.6728H167.139V94.7812H179.198V82.6728Z" fill="black"/>
<path d="M34.499 94.7812H22.4414V106.89H34.499V94.7812Z" fill="black"/>
<path d="M94.791 191.654H82.7334V203.763H94.791V191.654Z" fill="black"/>
<path d="M167.139 94.7812H155.081V106.89H167.139V94.7812Z" fill="black"/>
<path d="M191.255 94.7812H179.197V106.89H191.255V94.7812Z" fill="black"/>
<path d="M46.5585 106.892H34.501V119H46.5585V106.892Z" fill="black"/>
<path d="M106.848 106.892H46.5586V119H106.848V106.892Z" fill="black"/>
<path d="M191.255 106.892H179.197V155.327H191.255V106.892Z" fill="black"/>
<path d="M58.6162 111.614H46.5586V143.219H58.6162V111.614Z" fill="black"/>
<path d="M70.6739 143.219H58.6162V155.327H70.6739V143.219Z" fill="black"/>
<path d="M82.7334 155.327H70.6758V167.436H82.7334V155.327Z" fill="black"/>
<path d="M179.198 155.327H167.139V167.436H179.198V155.327Z" fill="black"/>
<path d="M155.081 167.436H82.7314V179.544H155.081V167.436Z" fill="black"/>
<path d="M167.139 167.436H155.081V179.544H167.139V167.436Z" fill="black"/>
<path d="M106.849 179.544H94.791V191.654H106.849V179.544Z" fill="black"/>
<path d="M155.081 179.544H143.023V191.654H155.081V179.544Z" fill="black"/>
<path d="M155.081 191.654H82.7314V203.763H155.081V191.654Z" fill="black"/>
<path d="M167.139 191.654H155.081V203.763H167.139V191.654Z" fill="black"/>
<path d="M70.6739 58.4559H58.6162V70.5643H70.6739V58.4559Z" fill="black"/>
<path d="M82.7294 46.3456H70.6719V58.454H82.7294V46.3456Z" fill="black"/>
</g>
</svg>
