<svg width="382" height="382" viewBox="0 0 382 382" fill="none" xmlns="http://www.w3.org/2000/svg">
<rect width="382" height="382" rx="191" fill="#2E1A4E"/>
<g clip-path="url(#clip0_586_4326)">
<path d="M304.519 141.618C302.991 141.189 301.218 140.699 299.934 140.331C299.2 129.303 294.86 119.684 287.951 113.68C281.838 108.411 274.196 106.205 265.82 107.247C253.959 108.717 251.086 108.656 247.54 104.673C244.972 101.733 242.894 98.6692 240.815 95.667C234.518 86.4156 227.426 76 209.636 76C192.823 76 182.002 85.6191 172.465 94.1353L170.08 96.2797C168.369 97.8114 164.823 97.3825 157.914 94.8705C146.054 90.5205 136.456 91.0719 125.757 96.6473C114.752 102.406 107.294 115.579 107.294 129.364C107.294 133.347 106.682 134.633 93.0488 137.942C91.5204 138.31 89.8697 138.738 88.2802 139.106C58.4457 146.948 42 167.779 42 197.801C42 223.962 57.8343 254.474 102.525 254.474H137.678C162.438 254.474 166.229 257.843 188.116 284.495C199.242 298.035 213.976 306 226.57 306C229.627 306 232.562 305.51 235.313 304.53C240.082 302.814 251.208 296.749 251.208 277.878C251.208 263.296 254.021 252.145 288.991 252.145C318.458 252.145 339 229.538 339 197.188C339 168.27 326.1 147.5 304.519 141.679V141.618ZM288.991 233.765C262.885 233.765 232.867 238.789 232.867 277.878C232.867 281.493 232.195 286.088 229.138 287.191C223.636 289.213 211.775 284.25 202.299 272.731C178.823 244.242 170.57 236.032 137.678 236.032H102.525C64.437 236.032 60.3409 209.258 60.3409 197.739C60.3409 175.989 70.9786 162.633 92.9265 156.874C94.4549 156.506 95.9222 156.139 97.3895 155.771C109.311 152.891 125.634 148.909 125.634 129.303C125.634 121.093 130.097 115.028 134.255 112.883C137.556 111.168 140.368 110.31 143.364 110.31C145.871 110.31 148.499 110.923 151.678 112.087C158.159 114.415 171.609 119.378 182.247 110.004L184.692 107.798C193.19 100.262 199.854 94.2579 209.697 94.2579C217.461 94.2579 219.723 97.0762 225.776 105.899C228.038 109.207 230.544 112.883 233.784 116.621C244.055 128.384 255.732 126.914 268.143 125.382C271.322 124.953 273.89 125.688 276.03 127.526C279.392 130.467 281.532 136.165 281.715 142.782C282.021 154.423 290.641 156.751 299.751 159.263C318.642 164.41 320.659 187.385 320.659 197.066C320.659 213.914 312.345 233.643 288.991 233.643V233.765ZM293.453 189.897C289.052 189.897 285.506 193.451 285.506 197.862C285.506 202.273 289.052 205.827 293.453 205.827C297.855 205.827 301.401 202.273 301.401 197.862C301.401 193.451 297.855 189.897 293.453 189.897ZM88.1579 189.897C83.7561 189.897 80.2102 193.451 80.2102 197.862C80.2102 202.273 83.7561 205.827 88.1579 205.827C92.5597 205.827 96.1056 202.273 96.1056 197.862C96.1056 193.451 92.5597 189.897 88.1579 189.897ZM117.503 162.755C113.101 162.755 109.556 166.309 109.556 170.72V207.787C109.556 212.199 113.101 215.752 117.503 215.752C121.905 215.752 125.451 212.199 125.451 207.787V170.72C125.451 166.309 121.905 162.755 117.503 162.755ZM264.108 162.755C259.706 162.755 256.16 166.309 256.16 170.72V212.015C256.16 216.426 259.706 219.98 264.108 219.98C268.51 219.98 272.056 216.426 272.056 212.015V170.72C272.056 166.309 268.51 162.755 264.108 162.755ZM146.849 135.552C142.447 135.552 138.901 139.106 138.901 143.517V207.726C138.901 212.137 142.447 215.691 146.849 215.691C151.251 215.691 154.796 212.137 154.796 207.726V143.517C154.796 139.106 151.251 135.552 146.849 135.552ZM176.133 127.343C171.731 127.343 168.185 130.896 168.185 135.307V217.406C168.185 221.818 171.731 225.371 176.133 225.371C180.535 225.371 184.081 221.818 184.081 217.406V135.307C184.081 130.896 180.535 127.343 176.133 127.343ZM205.478 119.133C201.077 119.133 197.531 122.686 197.531 127.097V235.664C197.531 240.076 201.077 243.629 205.478 243.629C209.88 243.629 213.426 240.076 213.426 235.664V127.097C213.426 122.686 209.88 119.133 205.478 119.133ZM234.824 142.843C230.422 142.843 226.876 146.397 226.876 150.808V225.31C226.876 229.721 230.422 233.275 234.824 233.275C239.226 233.275 242.772 229.721 242.772 225.31V150.808C242.772 146.397 239.226 142.843 234.824 142.843Z" fill="url(#paint0_linear_586_4326)"/>
</g>
<defs>
<linearGradient id="paint0_linear_586_4326" x1="42" y1="191" x2="339" y2="191" gradientUnits="userSpaceOnUse">
<stop stop-color="#F0078C"/>
<stop offset="1" stop-color="#0DB2F8"/>
</linearGradient>
<clipPath id="clip0_586_4326">
<rect width="297" height="230" fill="white" transform="translate(42 76)"/>
</clipPath>
</defs>
</svg>
